# Blender 4.3.1
# www.blender.org
mtllib Slash.mtl
o Slash
v 0.000000 -0.482913 -1.000000
v 0.000000 0.450928 -1.000000
v 0.195090 -0.482913 -0.980785
v 0.195090 0.450928 -0.980785
v 0.382683 -0.482913 -0.923880
v 0.382683 0.450928 -0.923880
v 0.555570 -0.482913 -0.831470
v 0.555570 0.450928 -0.831470
v 0.707107 -0.482913 -0.707107
v 0.707107 0.450928 -0.707107
v 0.831470 -0.482913 -0.555570
v 0.831470 0.450928 -0.555570
v 0.923880 -0.482913 -0.382683
v 0.923880 0.450928 -0.382683
v 0.980785 -0.482913 -0.195090
v 0.980785 0.450928 -0.195090
v 1.000000 -0.482913 0.000000
v 1.000000 0.450928 0.000000
v 0.980785 -0.482913 0.195090
v 0.980785 0.450928 0.195090
v 0.923880 -0.482913 0.382683
v 0.923880 0.450928 0.382683
v 0.831470 -0.482913 0.555570
v 0.831470 0.450928 0.555570
v 0.707107 -0.482913 0.707107
v 0.707107 0.450928 0.707107
v 0.555570 -0.482913 0.831470
v 0.555570 0.450928 0.831470
v 0.382683 -0.482913 0.923880
v 0.382683 0.450928 0.923880
v 0.195090 -0.482913 0.980785
v 0.195090 0.450928 0.980785
v 0.000000 -0.482913 1.000000
v 0.000000 0.450928 1.000000
v -0.195090 -0.482913 0.980785
v -0.195090 0.450928 0.980785
v -0.382683 -0.482913 0.923880
v -0.382683 0.450928 0.923880
v -0.555570 -0.482913 0.831470
v -0.555570 0.450928 0.831470
v -0.707107 -0.482913 0.707107
v -0.707107 0.450928 0.707107
v -0.831470 -0.482913 0.555570
v -0.831470 0.450928 0.555570
v -0.923880 -0.482913 0.382683
v -0.923880 0.450928 0.382683
v -0.980785 -0.482913 0.195090
v -0.980785 0.450928 0.195090
v -1.000000 -0.482913 0.000000
v -1.000000 0.450928 0.000000
v -0.980785 -0.482913 -0.195090
v -0.980785 0.450928 -0.195090
v -0.923880 -0.482913 -0.382683
v -0.923880 0.450928 -0.382683
v -0.831470 -0.482913 -0.555570
v -0.831470 0.450928 -0.555570
v -0.707107 -0.482913 -0.707107
v -0.707107 0.450928 -0.707107
v -0.555570 -0.482913 -0.831470
v -0.555570 0.450928 -0.831470
v -0.382683 -0.482913 -0.923880
v -0.382683 0.450928 -0.923880
v -0.195090 -0.482913 -0.980785
v -0.195090 0.450928 -0.980785
v 0.000000 -0.409928 -1.587378
v 0.000000 -0.039338 -3.252077
v 0.000000 0.331251 -1.587378
v 0.309682 0.331251 -1.556877
v 0.634449 -0.039338 -3.189589
v 0.309682 -0.409928 -1.556877
v 0.607463 0.331251 -1.466546
v 1.244516 -0.039338 -3.004527
v 0.607463 -0.409928 -1.466546
v 0.881900 0.331251 -1.319857
v 1.806757 -0.039338 -2.704003
v 0.881900 -0.409928 -1.319857
v 1.122446 0.331251 -1.122446
v 2.299566 -0.039338 -2.299566
v 1.122446 -0.409928 -1.122446
v 1.319857 0.331251 -0.881900
v 2.704003 -0.039338 -1.806757
v 1.319857 -0.409928 -0.881900
v 1.466546 0.331251 -0.607463
v 3.004527 -0.039338 -1.244516
v 1.466546 -0.409928 -0.607463
v 1.556877 0.331251 -0.309682
v 3.189589 -0.039338 -0.634449
v 1.556877 -0.409928 -0.309682
v 1.587378 0.331251 -0.000000
v 3.252077 -0.039338 -0.000000
v 1.587378 -0.409928 -0.000000
v 1.556877 0.331251 0.309682
v 3.189589 -0.039338 0.634449
v 1.556877 -0.409928 0.309682
v 1.466546 0.331251 0.607463
v 3.004527 -0.039338 1.244516
v 1.466546 -0.409928 0.607463
v 1.319857 0.331251 0.881900
v 2.704003 -0.039338 1.806757
v 1.319857 -0.409928 0.881900
v 1.122446 0.331251 1.122446
v 2.299566 -0.039338 2.299566
v 1.122446 -0.409928 1.122446
v 0.881900 0.331251 1.319857
v 1.806757 -0.039338 2.704003
v 0.881900 -0.409928 1.319857
v 0.607463 0.331251 1.466546
v 1.244516 -0.039338 3.004527
v 0.607463 -0.409928 1.466546
v 0.309682 0.331251 1.556877
v 0.634449 -0.039338 3.189589
v 0.309682 -0.409928 1.556877
v 0.000000 0.331251 1.587378
v 0.000000 -0.039338 3.252077
v 0.000000 -0.409928 1.587378
v -0.309682 0.331251 1.556877
v -0.634449 -0.039338 3.189589
v -0.309682 -0.409928 1.556877
v -0.607463 0.331251 1.466546
v -1.244516 -0.039338 3.004527
v -0.607463 -0.409928 1.466546
v -0.881900 0.331251 1.319857
v -1.806757 -0.039338 2.704003
v -0.881900 -0.409928 1.319857
v -1.122446 0.331251 1.122446
v -2.299566 -0.039338 2.299566
v -1.122446 -0.409928 1.122446
v -1.319857 0.331251 0.881900
v -2.704003 -0.039338 1.806757
v -1.319857 -0.409928 0.881900
v -1.466546 0.331251 0.607463
v -3.004527 -0.039338 1.244516
v -1.466546 -0.409928 0.607463
v -1.556877 0.331251 0.309682
v -3.189589 -0.039338 0.634449
v -1.556877 -0.409928 0.309682
v -1.587378 0.331251 -0.000000
v -3.252077 -0.039338 -0.000000
v -1.587378 -0.409928 -0.000000
v -1.556877 0.331251 -0.309682
v -3.189589 -0.039338 -0.634449
v -1.556877 -0.409928 -0.309682
v -1.466546 0.331251 -0.607463
v -3.004527 -0.039338 -1.244516
v -1.466546 -0.409928 -0.607463
v -1.319857 0.331251 -0.881900
v -2.704003 -0.039338 -1.806757
v -1.319857 -0.409928 -0.881900
v -1.122446 0.331251 -1.122446
v -2.299566 -0.039338 -2.299566
v -1.122446 -0.409928 -1.122446
v -0.881900 0.331251 -1.319857
v -1.806757 -0.039338 -2.704003
v -0.881900 -0.409928 -1.319857
v -0.607463 0.331251 -1.466546
v -1.244516 -0.039338 -3.004527
v -0.607463 -0.409928 -1.466546
v -0.309682 0.331251 -1.556877
v -0.634449 -0.039338 -3.189589
v -0.309682 -0.409928 -1.556877
vn -0.0000 -0.9924 -0.1233
vn -0.0000 0.9799 -0.1996
vn 0.0241 -0.9924 -0.1209
vn 0.0389 0.9799 -0.1958
vn 0.0472 -0.9924 -0.1139
vn 0.0764 0.9799 -0.1844
vn 0.0685 -0.9924 -0.1025
vn 0.1109 0.9799 -0.1660
vn 0.0872 -0.9924 -0.0872
vn 0.1412 0.9799 -0.1412
vn 0.1025 -0.9924 -0.0685
vn 0.1660 0.9799 -0.1109
vn 0.1139 -0.9924 -0.0472
vn 0.1844 0.9799 -0.0764
vn 0.1209 -0.9924 -0.0241
vn 0.1958 0.9799 -0.0389
vn 0.1233 -0.9924 -0.0000
vn 0.1996 0.9799 -0.0000
vn 0.1209 -0.9924 0.0241
vn 0.1958 0.9799 0.0389
vn 0.1139 -0.9924 0.0472
vn 0.1844 0.9799 0.0764
vn 0.1025 -0.9924 0.0685
vn 0.1660 0.9799 0.1109
vn 0.0872 -0.9924 0.0872
vn 0.1412 0.9799 0.1412
vn 0.0685 -0.9924 0.1025
vn 0.1109 0.9799 0.1660
vn 0.0472 -0.9924 0.1139
vn 0.0764 0.9799 0.1844
vn 0.0241 -0.9924 0.1209
vn 0.0389 0.9799 0.1958
vn -0.0000 -0.9924 0.1233
vn -0.0000 0.9799 0.1996
vn -0.0241 -0.9924 0.1209
vn -0.0389 0.9799 0.1958
vn -0.0472 -0.9924 0.1139
vn -0.0764 0.9799 0.1844
vn -0.0685 -0.9924 0.1025
vn -0.1109 0.9799 0.1660
vn -0.0872 -0.9924 0.0872
vn -0.1412 0.9799 0.1412
vn -0.1025 -0.9924 0.0685
vn -0.1660 0.9799 0.1109
vn -0.1139 -0.9924 0.0472
vn -0.1844 0.9799 0.0764
vn -0.1209 -0.9924 0.0241
vn -0.1958 0.9799 0.0389
vn -0.1233 -0.9924 -0.0000
vn -0.1996 0.9799 -0.0000
vn -0.1209 -0.9924 -0.0241
vn -0.1958 0.9799 -0.0389
vn -0.1139 -0.9924 -0.0472
vn -0.1844 0.9799 -0.0764
vn -0.1025 -0.9924 -0.0685
vn -0.1660 0.9799 -0.1109
vn -0.0872 -0.9924 -0.0872
vn -0.1412 0.9799 -0.1412
vn -0.0685 -0.9924 -0.1025
vn -0.1109 0.9799 -0.1660
vn -0.0472 -0.9924 -0.1139
vn -0.0764 0.9799 -0.1844
vn -0.0241 -0.9924 -0.1209
vn -0.0389 0.9799 -0.1958
vn -0.0000 -0.9849 -0.1734
vn -0.0000 -0.0000 -1.0000
vn -0.0000 0.9779 -0.2090
vn 0.0408 0.9779 -0.2050
vn 0.1951 -0.0000 -0.9808
vn 0.0338 -0.9849 -0.1701
vn 0.0800 0.9779 -0.1931
vn 0.3827 -0.0000 -0.9239
vn 0.0664 -0.9849 -0.1602
vn 0.1161 0.9779 -0.1738
vn 0.5556 -0.0000 -0.8315
vn 0.0963 -0.9849 -0.1442
vn 0.1478 0.9779 -0.1478
vn 0.7071 -0.0000 -0.7071
vn 0.1226 -0.9849 -0.1226
vn 0.1738 0.9779 -0.1161
vn 0.8315 -0.0000 -0.5556
vn 0.1442 -0.9849 -0.0963
vn 0.1931 0.9779 -0.0800
vn 0.9239 -0.0000 -0.3827
vn 0.1602 -0.9849 -0.0664
vn 0.2050 0.9779 -0.0408
vn 0.9808 -0.0000 -0.1951
vn 0.1701 -0.9849 -0.0338
vn 0.2090 0.9779 -0.0000
vn 1.0000 -0.0000 -0.0000
vn 0.1734 -0.9849 -0.0000
vn 0.2050 0.9779 0.0408
vn 0.9808 -0.0000 0.1951
vn 0.1701 -0.9849 0.0338
vn 0.1931 0.9779 0.0800
vn 0.9239 -0.0000 0.3827
vn 0.1602 -0.9849 0.0664
vn 0.1738 0.9779 0.1161
vn 0.8315 -0.0000 0.5556
vn 0.1442 -0.9849 0.0963
vn 0.1478 0.9779 0.1478
vn 0.7071 -0.0000 0.7071
vn 0.1226 -0.9849 0.1226
vn 0.1161 0.9779 0.1738
vn 0.5556 -0.0000 0.8315
vn 0.0963 -0.9849 0.1442
vn 0.0800 0.9779 0.1931
vn 0.3827 -0.0000 0.9239
vn 0.0664 -0.9849 0.1602
vn 0.0408 0.9779 0.2050
vn 0.1951 -0.0000 0.9808
vn 0.0338 -0.9849 0.1701
vn -0.0000 0.9779 0.2090
vn -0.0000 -0.0000 1.0000
vn -0.0000 -0.9849 0.1734
vn -0.0408 0.9779 0.2050
vn -0.1951 -0.0000 0.9808
vn -0.0338 -0.9849 0.1701
vn -0.0800 0.9779 0.1931
vn -0.3827 -0.0000 0.9239
vn -0.0664 -0.9849 0.1602
vn -0.1161 0.9779 0.1738
vn -0.5556 -0.0000 0.8315
vn -0.0963 -0.9849 0.1442
vn -0.1478 0.9779 0.1478
vn -0.7071 -0.0000 0.7071
vn -0.1226 -0.9849 0.1226
vn -0.1738 0.9779 0.1161
vn -0.8315 -0.0000 0.5556
vn -0.1442 -0.9849 0.0963
vn -0.1931 0.9779 0.0800
vn -0.9239 -0.0000 0.3827
vn -0.1602 -0.9849 0.0664
vn -0.2050 0.9779 0.0408
vn -0.9808 -0.0000 0.1951
vn -0.1701 -0.9849 0.0338
vn -0.2090 0.9779 -0.0000
vn -1.0000 -0.0000 -0.0000
vn -0.1734 -0.9849 -0.0000
vn -0.2050 0.9779 -0.0408
vn -0.9808 -0.0000 -0.1951
vn -0.1701 -0.9849 -0.0338
vn -0.1931 0.9779 -0.0800
vn -0.9239 -0.0000 -0.3827
vn -0.1602 -0.9849 -0.0664
vn -0.1738 0.9779 -0.1161
vn -0.8315 -0.0000 -0.5556
vn -0.1442 -0.9849 -0.0963
vn -0.1478 0.9779 -0.1478
vn -0.7071 -0.0000 -0.7071
vn -0.1226 -0.9849 -0.1226
vn -0.1161 0.9779 -0.1738
vn -0.5556 -0.0000 -0.8315
vn -0.0963 -0.9849 -0.1442
vn -0.0800 0.9779 -0.1931
vn -0.3827 -0.0000 -0.9239
vn -0.0664 -0.9849 -0.1602
vn -0.0408 0.9779 -0.2050
vn -0.1951 -0.0000 -0.9808
vn -0.0338 -0.9849 -0.1701
vt 1.000000 0.725000
vt 1.000000 1.000000
vt 0.968750 1.000000
vt 0.968750 0.725000
vt 0.937500 1.000000
vt 0.937500 0.725000
vt 0.906250 1.000000
vt 0.906250 0.725000
vt 0.875000 1.000000
vt 0.875000 0.725000
vt 0.843750 1.000000
vt 0.843750 0.725000
vt 0.812500 1.000000
vt 0.812500 0.725000
vt 0.781250 1.000000
vt 0.781250 0.725000
vt 0.750000 1.000000
vt 0.750000 0.725000
vt 0.718750 1.000000
vt 0.718750 0.725000
vt 0.687500 1.000000
vt 0.687500 0.725000
vt 0.656250 1.000000
vt 0.656250 0.725000
vt 0.625000 1.000000
vt 0.625000 0.725000
vt 0.593750 1.000000
vt 0.593750 0.725000
vt 0.562500 1.000000
vt 0.562500 0.725000
vt 0.531250 1.000000
vt 0.531250 0.725000
vt 0.500000 1.000000
vt 0.500000 0.725000
vt 0.468750 1.000000
vt 0.468750 0.725000
vt 0.437500 1.000000
vt 0.437500 0.725000
vt 0.406250 1.000000
vt 0.406250 0.725000
vt 0.375000 1.000000
vt 0.375000 0.725000
vt 0.343750 1.000000
vt 0.343750 0.725000
vt 0.312500 1.000000
vt 0.312500 0.725000
vt 0.281250 1.000000
vt 0.281250 0.725000
vt 0.250000 1.000000
vt 0.250000 0.725000
vt 0.218750 1.000000
vt 0.218750 0.725000
vt 0.187500 1.000000
vt 0.187500 0.725000
vt 0.156250 1.000000
vt 0.156250 0.725000
vt 0.125000 1.000000
vt 0.125000 0.725000
vt 0.093750 1.000000
vt 0.093750 0.725000
vt 0.062500 1.000000
vt 0.062500 0.725000
vt 0.031250 1.000000
vt 0.031250 0.725000
vt 0.000000 1.000000
vt 0.000000 0.725000
vt 0.031250 0.000000
vt 0.031250 0.225000
vt 0.000000 0.225000
vt 0.000000 0.000000
vt 0.031250 0.475000
vt 0.000000 0.475000
vt 0.062500 0.000000
vt 0.062500 0.225000
vt 0.062500 0.475000
vt 0.093750 0.000000
vt 0.093750 0.225000
vt 0.093750 0.475000
vt 0.125000 0.000000
vt 0.125000 0.225000
vt 0.125000 0.475000
vt 0.156250 0.000000
vt 0.156250 0.225000
vt 0.156250 0.475000
vt 0.187500 0.000000
vt 0.187500 0.225000
vt 0.187500 0.475000
vt 0.218750 0.000000
vt 0.218750 0.225000
vt 0.218750 0.475000
vt 0.250000 0.000000
vt 0.250000 0.225000
vt 0.250000 0.475000
vt 0.281250 0.000000
vt 0.281250 0.225000
vt 0.281250 0.475000
vt 0.312500 0.000000
vt 0.312500 0.225000
vt 0.312500 0.475000
vt 0.343750 0.000000
vt 0.343750 0.225000
vt 0.343750 0.475000
vt 0.375000 0.000000
vt 0.375000 0.225000
vt 0.375000 0.475000
vt 0.406250 0.000000
vt 0.406250 0.225000
vt 0.406250 0.475000
vt 0.437500 0.000000
vt 0.437500 0.225000
vt 0.437500 0.475000
vt 0.468750 0.000000
vt 0.468750 0.225000
vt 0.468750 0.475000
vt 0.500000 0.000000
vt 0.500000 0.225000
vt 0.500000 0.475000
vt 0.531250 0.000000
vt 0.531250 0.225000
vt 0.531250 0.475000
vt 0.562500 0.000000
vt 0.562500 0.225000
vt 0.562500 0.475000
vt 0.593750 0.000000
vt 0.593750 0.225000
vt 0.593750 0.475000
vt 0.625000 0.000000
vt 0.625000 0.225000
vt 0.625000 0.475000
vt 0.656250 0.000000
vt 0.656250 0.225000
vt 0.656250 0.475000
vt 0.687500 0.000000
vt 0.687500 0.225000
vt 0.687500 0.475000
vt 0.718750 0.000000
vt 0.718750 0.225000
vt 0.718750 0.475000
vt 0.750000 0.000000
vt 0.750000 0.225000
vt 0.750000 0.475000
vt 0.781250 0.000000
vt 0.781250 0.225000
vt 0.781250 0.475000
vt 0.812500 0.000000
vt 0.812500 0.225000
vt 0.812500 0.475000
vt 0.843750 0.000000
vt 0.843750 0.225000
vt 0.843750 0.475000
vt 0.875000 0.000000
vt 0.875000 0.225000
vt 0.875000 0.475000
vt 0.906250 0.000000
vt 0.906250 0.225000
vt 0.906250 0.475000
vt 0.937500 0.000000
vt 0.937500 0.225000
vt 0.937500 0.475000
vt 0.968750 0.000000
vt 0.968750 0.225000
vt 0.968750 0.475000
vt 1.000000 0.000000
vt 1.000000 0.225000
vt 1.000000 0.475000
s 1
f 67/1/67 2/2/2 4/3/4 68/4/68
f 68/4/68 4/3/4 6/5/6 71/6/71
f 71/6/71 6/5/6 8/7/8 74/8/74
f 74/8/74 8/7/8 10/9/10 77/10/77
f 77/10/77 10/9/10 12/11/12 80/12/80
f 80/12/80 12/11/12 14/13/14 83/14/83
f 83/14/83 14/13/14 16/15/16 86/16/86
f 86/16/86 16/15/16 18/17/18 89/18/89
f 89/18/89 18/17/18 20/19/20 92/20/92
f 92/20/92 20/19/20 22/21/22 95/22/95
f 95/22/95 22/21/22 24/23/24 98/24/98
f 98/24/98 24/23/24 26/25/26 101/26/101
f 101/26/101 26/25/26 28/27/28 104/28/104
f 104/28/104 28/27/28 30/29/30 107/30/107
f 107/30/107 30/29/30 32/31/32 110/32/110
f 110/32/110 32/31/32 34/33/34 113/34/113
f 113/34/113 34/33/34 36/35/36 116/36/116
f 116/36/116 36/35/36 38/37/38 119/38/119
f 119/38/119 38/37/38 40/39/40 122/40/122
f 122/40/122 40/39/40 42/41/42 125/42/125
f 125/42/125 42/41/42 44/43/44 128/44/128
f 128/44/128 44/43/44 46/45/46 131/46/131
f 131/46/131 46/45/46 48/47/48 134/48/134
f 134/48/134 48/47/48 50/49/50 137/50/137
f 137/50/137 50/49/50 52/51/52 140/52/140
f 140/52/140 52/51/52 54/53/54 143/54/143
f 143/54/143 54/53/54 56/55/56 146/56/146
f 146/56/146 56/55/56 58/57/58 149/58/149
f 149/58/149 58/57/58 60/59/60 152/60/152
f 152/60/152 60/59/60 62/61/62 155/62/155
f 155/62/155 62/61/62 64/63/64 158/64/158
f 158/64/158 64/63/64 2/65/2 67/66/67
f 63/67/63 160/68/160 65/69/65 1/70/1
f 160/68/160 159/71/159 66/72/66 65/69/65
f 159/71/159 158/64/158 67/66/67 66/72/66
f 61/73/61 157/74/157 160/68/160 63/67/63
f 157/74/157 156/75/156 159/71/159 160/68/160
f 156/75/156 155/62/155 158/64/158 159/71/159
f 59/76/59 154/77/154 157/74/157 61/73/61
f 154/77/154 153/78/153 156/75/156 157/74/157
f 153/78/153 152/60/152 155/62/155 156/75/156
f 57/79/57 151/80/151 154/77/154 59/76/59
f 151/80/151 150/81/150 153/78/153 154/77/154
f 150/81/150 149/58/149 152/60/152 153/78/153
f 55/82/55 148/83/148 151/80/151 57/79/57
f 148/83/148 147/84/147 150/81/150 151/80/151
f 147/84/147 146/56/146 149/58/149 150/81/150
f 53/85/53 145/86/145 148/83/148 55/82/55
f 145/86/145 144/87/144 147/84/147 148/83/148
f 144/87/144 143/54/143 146/56/146 147/84/147
f 51/88/51 142/89/142 145/86/145 53/85/53
f 142/89/142 141/90/141 144/87/144 145/86/145
f 141/90/141 140/52/140 143/54/143 144/87/144
f 49/91/49 139/92/139 142/89/142 51/88/51
f 139/92/139 138/93/138 141/90/141 142/89/142
f 138/93/138 137/50/137 140/52/140 141/90/141
f 47/94/47 136/95/136 139/92/139 49/91/49
f 136/95/136 135/96/135 138/93/138 139/92/139
f 135/96/135 134/48/134 137/50/137 138/93/138
f 45/97/45 133/98/133 136/95/136 47/94/47
f 133/98/133 132/99/132 135/96/135 136/95/136
f 132/99/132 131/46/131 134/48/134 135/96/135
f 43/100/43 130/101/130 133/98/133 45/97/45
f 130/101/130 129/102/129 132/99/132 133/98/133
f 129/102/129 128/44/128 131/46/131 132/99/132
f 41/103/41 127/104/127 130/101/130 43/100/43
f 127/104/127 126/105/126 129/102/129 130/101/130
f 126/105/126 125/42/125 128/44/128 129/102/129
f 39/106/39 124/107/124 127/104/127 41/103/41
f 124/107/124 123/108/123 126/105/126 127/104/127
f 123/108/123 122/40/122 125/42/125 126/105/126
f 37/109/37 121/110/121 124/107/124 39/106/39
f 121/110/121 120/111/120 123/108/123 124/107/124
f 120/111/120 119/38/119 122/40/122 123/108/123
f 35/112/35 118/113/118 121/110/121 37/109/37
f 118/113/118 117/114/117 120/111/120 121/110/121
f 117/114/117 116/36/116 119/38/119 120/111/120
f 33/115/33 115/116/115 118/113/118 35/112/35
f 115/116/115 114/117/114 117/114/117 118/113/118
f 114/117/114 113/34/113 116/36/116 117/114/117
f 31/118/31 112/119/112 115/116/115 33/115/33
f 112/119/112 111/120/111 114/117/114 115/116/115
f 111/120/111 110/32/110 113/34/113 114/117/114
f 29/121/29 109/122/109 112/119/112 31/118/31
f 109/122/109 108/123/108 111/120/111 112/119/112
f 108/123/108 107/30/107 110/32/110 111/120/111
f 27/124/27 106/125/106 109/122/109 29/121/29
f 106/125/106 105/126/105 108/123/108 109/122/109
f 105/126/105 104/28/104 107/30/107 108/123/108
f 25/127/25 103/128/103 106/125/106 27/124/27
f 103/128/103 102/129/102 105/126/105 106/125/106
f 102/129/102 101/26/101 104/28/104 105/126/105
f 23/130/23 100/131/100 103/128/103 25/127/25
f 100/131/100 99/132/99 102/129/102 103/128/103
f 99/132/99 98/24/98 101/26/101 102/129/102
f 21/133/21 97/134/97 100/131/100 23/130/23
f 97/134/97 96/135/96 99/132/99 100/131/100
f 96/135/96 95/22/95 98/24/98 99/132/99
f 19/136/19 94/137/94 97/134/97 21/133/21
f 94/137/94 93/138/93 96/135/96 97/134/97
f 93/138/93 92/20/92 95/22/95 96/135/96
f 17/139/17 91/140/91 94/137/94 19/136/19
f 91/140/91 90/141/90 93/138/93 94/137/94
f 90/141/90 89/18/89 92/20/92 93/138/93
f 15/142/15 88/143/88 91/140/91 17/139/17
f 88/143/88 87/144/87 90/141/90 91/140/91
f 87/144/87 86/16/86 89/18/89 90/141/90
f 13/145/13 85/146/85 88/143/88 15/142/15
f 85/146/85 84/147/84 87/144/87 88/143/88
f 84/147/84 83/14/83 86/16/86 87/144/87
f 11/148/11 82/149/82 85/146/85 13/145/13
f 82/149/82 81/150/81 84/147/84 85/146/85
f 81/150/81 80/12/80 83/14/83 84/147/84
f 9/151/9 79/152/79 82/149/82 11/148/11
f 79/152/79 78/153/78 81/150/81 82/149/82
f 78/153/78 77/10/77 80/12/80 81/150/81
f 7/154/7 76/155/76 79/152/79 9/151/9
f 76/155/76 75/156/75 78/153/78 79/152/79
f 75/156/75 74/8/74 77/10/77 78/153/78
f 5/157/5 73/158/73 76/155/76 7/154/7
f 73/158/73 72/159/72 75/156/75 76/155/76
f 72/159/72 71/6/71 74/8/74 75/156/75
f 3/160/3 70/161/70 73/158/73 5/157/5
f 70/161/70 69/162/69 72/159/72 73/158/73
f 69/162/69 68/4/68 71/6/71 72/159/72
f 1/163/1 65/164/65 70/161/70 3/160/3
f 65/164/65 66/165/66 69/162/69 70/161/70
f 66/165/66 67/1/67 68/4/68 69/162/69
